<?xml version="1.0" encoding="iso-8859-1"?>
<!-- Generator: Adobe Illustrator 19.0.0, SVG Export Plug-In . SVG Version: 6.00 Build 0)  -->
<svg version="1.1" id="Capa_1" xmlns="http://www.w3.org/2000/svg" xmlns:xlink="http://www.w3.org/1999/xlink" x="0px" y="0px"
	 viewBox="0 0 512.05 512.05" style="enable-background:new 0 0 512.05 512.05;" xml:space="preserve">
<g>
	<g>
		<path d="M441.369,3.034c-4.16-3.008-9.536-3.872-14.4-2.176l-90.432,30.144l-74.56-29.824c-3.808-1.536-8.064-1.536-11.872,0
			l-74.56,29.824L85.081,0.858c-4.896-1.696-10.24-0.832-14.4,2.176c-4.16,3.008-6.656,7.84-6.656,12.992v480
			c0,5.152,2.464,9.984,6.656,12.96c4.16,3.04,9.536,3.744,14.432,2.208l90.432-30.144l74.592,29.824
			c3.808,1.568,8.064,1.568,11.872,0l74.56-29.824l90.432,30.144c1.632,0.544,3.328,0.832,5.024,0.832
			c3.328,0,6.592-1.024,9.344-3.04c4.192-2.976,6.656-7.808,6.656-12.96v-480C448.025,10.874,445.561,6.042,441.369,3.034z
			 M144.025,96.026h128c8.832,0,16,7.168,16,16c0,8.832-7.168,16-16,16h-128c-8.832,0-16-7.168-16-16
			C128.025,103.194,135.193,96.026,144.025,96.026z M240.025,352.026h-96c-8.832,0-16-7.168-16-16c0-8.832,7.168-16,16-16h96
			c8.832,0,16,7.168,16,16C256.025,344.858,248.857,352.026,240.025,352.026z M240.025,256.026h-96c-8.832,0-16-7.168-16-16
			c0-8.832,7.168-16,16-16h96c8.832,0,16,7.168,16,16C256.025,248.858,248.857,256.026,240.025,256.026z M352.025,381.562v18.464
			c0,8.832-7.168,16-16,16c-8.832,0-16-7.168-16-16v-18.208c-5.152-1.472-9.984-3.68-14.336-6.56
			c-7.328-4.896-9.312-14.848-4.416-22.208c4.928-7.328,14.848-9.28,22.208-4.416c3.328,2.208,7.68,3.392,12.544,3.392
			c9.792,0,16-5.248,16-8s-6.208-8-16-8c-26.464,0-48-17.952-48-40c0-17.376,13.408-32.032,32-37.536v-18.464
			c0-8.832,7.168-16,16-16c8.832,0,16,7.168,16,16v18.208c5.152,1.472,10.016,3.68,14.336,6.56
			c7.328,4.896,9.312,14.848,4.416,22.176c-4.928,7.328-14.816,9.344-22.208,4.416c-3.296-2.208-7.648-3.36-12.544-3.36
			c-9.792,0-16,5.248-16,8s6.208,8,16,8c26.464,0,48,17.952,48,40C384.025,361.402,370.617,376.058,352.025,381.562z
			 M368.025,192.026h-224c-8.832,0-16-7.168-16-16c0-8.832,7.168-16,16-16h224c8.832,0,16,7.168,16,16
			C384.025,184.858,376.857,192.026,368.025,192.026z"/>
	</g>
</g>
<g>
</g>
<g>
</g>
<g>
</g>
<g>
</g>
<g>
</g>
<g>
</g>
<g>
</g>
<g>
</g>
<g>
</g>
<g>
</g>
<g>
</g>
<g>
</g>
<g>
</g>
<g>
</g>
<g>
</g>
</svg>
