<?xml version="1.0" encoding="UTF-8"?>
<svg width="42px" height="41px" viewBox="0 0 42 41" version="1.1" xmlns="http://www.w3.org/2000/svg" xmlns:xlink="http://www.w3.org/1999/xlink">
    <!-- Generator: Sketch 48.2 (47327) - http://www.bohemiancoding.com/sketch -->
    <title>Group</title>
    <desc>Created with Sketch.</desc>
    <defs></defs>
    <g id="BlackListed" stroke="none" stroke-width="1" fill="none" fill-rule="evenodd" transform="translate(-1054.000000, -33.000000)">
        <g id="Group-77" transform="translate(1013.000000, 0.000000)" fill="#FFFFFF" fill-rule="nonzero">
            <g id="Group-73" transform="translate(26.000000, 20.000000)">
                <g id="Group" transform="translate(15.000000, 13.000000)">
                    <path d="M27.9807073,8.13109756 C27.9807073,13.1700732 23.8959512,20.648122 18.8569756,20.648122 C13.8185122,20.648122 9.7337561,13.1700732 9.7337561,8.13109756 C9.7337561,3.09263415 13.8190244,0.0317560976 18.8574878,0.0317560976 C23.8959512,0.0317560976 27.9807073,3.09263415 27.9807073,8.13109756 Z" id="Shape"></path>
                    <path d="M37.3892195,38.0499512 C37.3502927,37.7943659 37.275,37.553122 37.1659024,37.3287805 C36.7766341,36.083122 36.3935122,34.9419512 36.0114146,33.8847805 L34.6438537,33.8847805 C34.5649756,33.8883659 34.4886585,33.9006585 34.4087561,33.9006585 L32.172,33.9006585 C29.045561,33.4888537 25.0391707,31.8155122 24.2929024,26.0917317 L24.2929024,25.3449512 L24.2929024,24.0409024 L24.2929024,21.8650976 C22.7122683,21.6627805 20.9416098,21.6079756 18.902561,21.6079756 C8.88709756,21.6079756 4.2834878,23.4667317 0.343170732,37.905 C0.341634146,37.9106341 0.340097561,37.9157561 0.339073171,37.920878 C0.306292683,38.0837561 0.287853659,38.2522683 0.287853659,38.424878 C0.287853659,39.8154878 1.41519512,40.9428293 2.80580488,40.9428293 L34.9091707,40.9428293 C36.2997805,40.9428293 37.427122,39.8154878 37.427122,38.424878 C37.427122,38.2973415 37.4081707,38.1733902 37.3892195,38.0499512 Z" id="Shape"></path>
                    <path d="M34.6305366,17.0525122 L33.983122,17.0525122 C29.9296098,17.0525122 26.6443902,20.3377317 26.6443902,24.3902195 C26.6443902,28.4432195 29.9296098,31.728439 33.983122,31.728439 L34.6305366,31.728439 C38.6830244,31.728439 41.9682439,28.4432195 41.9682439,24.3902195 C41.9682439,20.3377317 38.6830244,17.0525122 34.6305366,17.0525122 Z M34.0486829,18.5250732 L34.566,18.5250732 C35.8142195,18.5250732 36.9687073,18.9179268 37.9198537,19.5822439 L29.5618537,28.1656098 C28.701878,27.1448049 28.1825122,25.8284634 28.1825122,24.3902195 C28.182,21.1510976 30.8080244,18.5250732 34.0486829,18.5250732 Z M34.5654878,30.255878 L34.0481707,30.255878 C32.8009756,30.255878 31.6475122,29.8640488 30.6973902,29.2012683 L39.054878,20.6189268 C39.9128049,21.6387073 40.4311463,22.9540244 40.4311463,24.3902195 C40.4311463,27.6298537 37.805122,30.255878 34.5654878,30.255878 Z" id="Shape"></path>
                </g>
            </g>
        </g>
    </g>
</svg>