<?xml version="1.0" encoding="UTF-8"?>
<svg width="19px" height="12px" viewBox="0 0 19 12" version="1.1" xmlns="http://www.w3.org/2000/svg" xmlns:xlink="http://www.w3.org/1999/xlink">
    <!-- Generator: Sketch 47.1 (45422) - http://www.bohemiancoding.com/sketch -->
    <title>BroadbandGroup 10</title>
    <desc>Created with Sketch.</desc>
    <defs></defs>
    <g id="Page-1" stroke="none" stroke-width="1" fill="none" fill-rule="evenodd">
        <g id="Screen-1" transform="translate(-490.000000, -548.000000)" fill-rule="nonzero" fill="#1f1f1f">
            <g id="Group-53" transform="translate(408.000000, 540.000000)">
                <g id="Group-50" transform="translate(63.000000, 0.000000)">
                    <g id="Group-3" transform="translate(15.666667, 0.000000)">
                        <g id="Group-10" transform="translate(4.062500, 8.125000)">
                            <path d="M0.89375,4.58457936 L0,3.69082936 C4.93009104,-1.23027645 12.913822,-1.23027645 17.843913,3.69082936 L16.952106,4.58457936 C12.5147161,0.15742897 5.33113991,0.15742897 0.89375,4.58457936 Z" id="Shape"></path>
                            <path d="M3.25441576,6.94718805 L2.36066576,6.05343805 C4.10095796,4.31277682 6.4615222,3.33485249 8.92292799,3.33485249 C11.3843338,3.33485249 13.744898,4.31277682 15.4851902,6.05343805 L14.5914402,6.94718805 C11.4607932,3.81658946 6.38506281,3.81658946 3.25441576,6.94718805 L3.25441576,6.94718805 Z" id="Shape"></path>
                            <path d="M5.5470788,9.24762283 L4.6533288,8.35387283 C5.78295276,7.22376536 7.31534186,6.58883693 8.91321332,6.58883693 C10.5110848,6.58883693 12.0434739,7.22376536 13.1730978,8.35387283 L12.2910054,9.24762283 C11.3975587,8.3517159 10.1843074,7.84819329 8.91904212,7.84819329 C7.65377684,7.84819329 6.4405255,8.3517159 5.5470788,9.24762283 Z" id="Shape"></path>
                            <path d="M9.94005435,11.6005169 C9.37868488,11.0397027 8.46911403,11.0397027 7.90774457,11.6005169 L7.01399457,10.7067669 C8.06894991,9.65413626 9.77690607,9.65413626 10.8318614,10.7067669 L9.94005435,11.6005169 Z" id="Shape"></path>
                        </g>
                    </g>
                </g>
            </g>
        </g>
    </g>
</svg>