<?xml version="1.0" encoding="iso-8859-1"?>
<!-- Generator: Adobe Illustrator 18.0.0, SVG Export Plug-In . SVG Version: 6.00 Build 0)  -->
<!DOCTYPE svg PUBLIC "-//W3C//DTD SVG 1.1//EN" "http://www.w3.org/Graphics/SVG/1.1/DTD/svg11.dtd">
<svg version="1.1" id="Capa_1" xmlns="http://www.w3.org/2000/svg" xmlns:xlink="http://www.w3.org/1999/xlink" x="0px" y="0px"
	 viewBox="0 0 300.68 300.68" style="enable-background:new 0 0 300.68 300.68;" xml:space="preserve">
<g>
	<path d="M289.845,19.582h-31.47V5.245c0-2.897-2.349-5.245-5.246-5.245H43.85c-2.897,0-5.246,2.349-5.246,5.245v26.636H60.21
		c5.794,0,10.49,4.697,10.49,10.49v14.686c0,5.793-4.696,10.49-10.49,10.49H38.604v37.765H60.21c5.794,0,10.49,4.697,10.49,10.49
		v14.686c0,5.794-4.696,10.49-10.49,10.49H38.604v37.765H60.21c5.794,0,10.49,4.697,10.49,10.49v14.687
		c0,5.793-4.696,10.49-10.49,10.49H38.604v24.076v19.008v37.94c0,2.896,2.349,5.245,5.246,5.245h245.994
		c2.897,0,5.245-2.349,5.245-5.245V24.827C295.09,21.931,292.742,19.582,289.845,19.582z M190.284,163.983
		c6.184,0,10.503-10.191,10.503-24.783c0-26.64-18.716-45.976-44.503-45.976c-26.314,0-45.413,19.193-45.413,45.636
		c0,25.196,18.479,43.484,43.939,43.484c5.313,0,12.727-1.738,17.626-4.133l4.428,9.06c-6.311,3.085-15.174,5.157-22.054,5.157
		c-31.304,0-54.023-22.528-54.023-53.568c0-32.287,23.34-55.72,55.497-55.72c31.63,0,54.587,23.577,54.587,56.06
		c0,21.181-8.081,34.867-20.587,34.867c-7.009,0-12.537-5.101-14.042-12.368c-5.282,4.851-12.414,7.69-20.594,7.69
		c-17.528,0-30.251-13.032-30.251-30.986c0-18.014,12.723-31.089,30.251-31.089c17.467,0,30.158,12.982,30.25,30.897h0.007v19.465
		C185.905,161.271,187.788,163.983,190.284,163.983z M274.109,279.699H59.585V262.74h193.544c2.898,0,5.246-2.349,5.246-5.246
		V40.563h15.734V279.699z"/>
	<path d="M155.648,117.398c-11.874,0-20.167,8.638-20.167,21.005c0,12.307,8.293,20.902,20.167,20.902
		c11.876,0,20.17-8.595,20.17-20.902C175.818,126.036,167.524,117.398,155.648,117.398z"/>
	<path d="M27.572,86.335V71.649c-4.024,0-7.296-3.272-7.296-7.295c0-4.023,3.272-7.296,7.296-7.296H60.71V42.371H27.572
		c-12.121,0-21.982,9.861-21.982,21.982C5.59,76.475,15.451,86.335,27.572,86.335z"/>
	<path d="M27.572,159.767v-14.686c-4.024,0-7.296-3.273-7.296-7.296c0-4.023,3.272-7.296,7.296-7.296H60.71v-14.686H27.572
		c-12.121,0-21.982,9.861-21.982,21.982C5.59,149.905,15.451,159.767,27.572,159.767z"/>
	<path d="M27.572,203.92H60.71v-14.687H27.572c-12.121,0-21.982,9.861-21.982,21.982c0,12.12,9.861,21.982,21.982,21.982v-14.687
		c-4.024,0-7.296-3.273-7.296-7.295C20.276,207.193,23.549,203.92,27.572,203.92z"/>
</g>
<g>
</g>
<g>
</g>
<g>
</g>
<g>
</g>
<g>
</g>
<g>
</g>
<g>
</g>
<g>
</g>
<g>
</g>
<g>
</g>
<g>
</g>
<g>
</g>
<g>
</g>
<g>
</g>
<g>
</g>
</svg>
