<svg width="197.975" height="197.975" xmlns="http://www.w3.org/2000/svg">

 <g>
  <title>background</title>
  <rect fill="none" id="canvas_background" height="402" width="582" y="-1" x="-1"/>
 </g>
 <g>
  <title>Layer 1</title>
  <g id="svg_1">
   <g id="svg_2">
    <path id="svg_3" d="m160.428,0l-102.592,0c-0.911,0 -1.785,0.364 -2.425,1.01l-20.289,20.48c-0.633,0.64 -0.988,1.504 -0.988,2.403l0,170.667c0,1.097 0.527,2.126 1.417,2.77c0.889,0.642 2.036,0.818 3.075,0.469l19.127,-6.376l12.17,6.182c0.947,0.48 2.062,0.493 3.017,0.036l12.774,-6.101l11.94,6.065c0.957,0.485 2.089,0.492 3.053,0.019l12.324,-6.067l11.698,6.038c0.963,0.497 2.103,0.509 3.074,0.029l12.604,-6.205l18.93,6.378c0.357,0.118 0.725,0.177 1.091,0.177c0.705,0 1.403,-0.22 1.992,-0.64c0.893,-0.642 1.422,-1.674 1.422,-2.773l0,-191.148c-0.001,-1.884 -1.53,-3.413 -3.414,-3.413zm-3.412,189.809l-15.761,-5.309c-0.855,-0.288 -1.787,-0.225 -2.598,0.172l-12.324,6.067l-11.699,-6.038c-0.959,-0.495 -2.099,-0.507 -3.072,-0.029l-12.336,6.072l-11.918,-6.054c-0.945,-0.48 -2.062,-0.493 -3.017,-0.036l-12.776,6.101l-11.943,-6.065c-0.485,-0.246 -1.014,-0.37 -1.546,-0.37c-0.363,0 -0.729,0.058 -1.079,0.172l-15.986,5.33l0,-164.526l18.301,-18.47l97.754,0l0,182.983z"/>
   </g>
  </g>
  <g id="svg_4">
   <g id="svg_5">
    <path id="svg_6" d="m136.534,27.307l-75.093,0c-1.884,0 -3.413,1.529 -3.413,3.413s1.529,3.413 3.413,3.413l75.093,0c1.884,0 3.413,-1.529 3.413,-3.413s-1.529,-3.413 -3.413,-3.413z"/>
   </g>
  </g>
  <g id="svg_7">
   <g id="svg_8">
    <path id="svg_9" d="m136.534,61.44l-75.093,0c-1.884,0 -3.413,1.529 -3.413,3.413c0,1.884 1.529,3.413 3.413,3.413l75.093,0c1.884,0 3.413,-1.529 3.413,-3.413c0.001,-1.884 -1.529,-3.413 -3.413,-3.413z"/>
   </g>
  </g>
  <g id="svg_10">
   <g id="svg_11">
    <path id="svg_12" d="m92.161,44.373l-30.72,0c-1.884,0 -3.413,1.529 -3.413,3.413s1.529,3.413 3.413,3.413l30.72,0c1.884,0 3.413,-1.529 3.413,-3.413s-1.529,-3.413 -3.413,-3.413z"/>
   </g>
  </g>
  <g id="svg_13">
   <g id="svg_14">
    <path id="svg_15" d="m64.854,92.16l-13.653,0c-1.884,0 -3.413,1.529 -3.413,3.413s1.529,3.413 3.413,3.413l13.653,0c1.884,0 3.413,-1.529 3.413,-3.413s-1.529,-3.413 -3.413,-3.413z"/>
   </g>
  </g>
  <g id="svg_16">
   <g id="svg_17">
    <path id="svg_18" d="m95.574,92.16l-13.653,0c-1.884,0 -3.413,1.529 -3.413,3.413s1.529,3.413 3.413,3.413l13.653,0c1.884,0 3.413,-1.529 3.413,-3.413s-1.529,-3.413 -3.413,-3.413z"/>
   </g>
  </g>
  <g id="svg_19">
   <g id="svg_20">
    <path id="svg_21" d="m126.294,92.16l-13.653,0c-1.884,0 -3.413,1.529 -3.413,3.413s1.529,3.413 3.413,3.413l13.653,0c1.884,0 3.413,-1.529 3.413,-3.413s-1.529,-3.413 -3.413,-3.413z"/>
   </g>
  </g>
  <g id="svg_22">
   <g id="svg_23">
    <path id="svg_24" d="m157.014,92.16l-13.653,0c-1.884,0 -3.413,1.529 -3.413,3.413s1.529,3.413 3.413,3.413l13.653,0c1.884,0 3.413,-1.529 3.413,-3.413s-1.529,-3.413 -3.413,-3.413z"/>
   </g>
  </g>
  <g id="svg_25">
   <g id="svg_26">
    <path id="svg_27" d="m136.534,44.373l-30.72,0c-1.884,0 -3.413,1.529 -3.413,3.413s1.529,3.413 3.413,3.413l30.72,0c1.884,0 3.413,-1.529 3.413,-3.413s-1.529,-3.413 -3.413,-3.413z"/>
   </g>
  </g>
  <g id="svg_28"/>
  <g id="svg_29"/>
  <g id="svg_30"/>
  <g id="svg_31"/>
  <g id="svg_32"/>
  <g id="svg_33"/>
  <g id="svg_34"/>
  <g id="svg_35"/>
  <g id="svg_36"/>
  <g id="svg_37"/>
  <g id="svg_38"/>
  <g id="svg_39"/>
  <g id="svg_40"/>
  <g id="svg_41"/>
  <g id="svg_42"/>
  <text style="cursor: move;" font-weight="bold" stroke="#000" transform="matrix(1.6564102172851562,0,0,1,-41.67179238796234,0) " xml:space="preserve" text-anchor="start" font-family="Helvetica, Arial, sans-serif" font-size="22" id="svg_43" y="145.987503" x="63.487488" stroke-width="0" fill="#000000">EMI</text>
 </g>
</svg>