<?xml version="1.0" encoding="iso-8859-1"?>
<!-- Generator: Adobe Illustrator 19.0.0, SVG Export Plug-In . SVG Version: 6.00 Build 0)  -->
<svg version="1.1" id="Capa_1" xmlns="http://www.w3.org/2000/svg" xmlns:xlink="http://www.w3.org/1999/xlink" x="0px" y="0px"
	 viewBox="0 0 512.001 512.001" style="enable-background:new 0 0 512.001 512.001;" xml:space="preserve">
<g>
	<g>
		<path d="M224,0.001H74.667C33.451,0.054,0.053,33.452,0,74.668v298.667c0,42.741,45.056,74.666,85.333,74.666H96v-21.333H85.333
			c-28.992,0-64-23.787-64-53.334V74.668c0.035-29.441,23.893-53.298,53.333-53.333H224c29.441,0.035,53.298,23.893,53.333,53.333
			v106.667h21.333V74.668C298.614,33.452,265.215,0.054,224,0.001z"/>
	</g>
</g>
<g>
	<g>
		<rect x="42.667" y="64.001" width="213.33" height="21.333"/>
	</g>
</g>
<g>
	<g>
		<rect x="42.667" y="373.331" width="53.33" height="21.333"/>
	</g>
</g>
<g>
	<g>
		<rect x="42.667" y="106.671" width="21.333" height="21.333"/>
	</g>
</g>
<g>
	<g>
		<rect x="85.33" y="106.671" width="21.333" height="21.333"/>
	</g>
</g>
<g>
	<g>
		<rect x="42.667" y="149.331" width="21.333" height="21.333"/>
	</g>
</g>
<g>
	<g>
		<path d="M501.333,213.334H256c-2.829,0.001-5.541,1.125-7.541,3.125l-128,128c-2.001,2-3.125,4.713-3.125,7.541v149.333
			c0,5.891,4.776,10.667,10.667,10.667h373.333c5.891,0,10.667-4.776,10.667-10.667V224.001
			C512,218.11,507.224,213.334,501.333,213.334z M490.667,490.668h-352V356.417l121.749-121.749h230.251V490.668z"/>
	</g>
</g>
<g>
	<g>
		<path d="M426.667,266.668h-128c-17.673,0-32,14.327-32,32v128c0,17.673,14.327,32,32,32h128c17.673,0,32-14.327,32-32v-128
			C458.667,280.995,444.34,266.668,426.667,266.668z M405.333,288.001h21.333c5.892,0,10.667,4.776,10.667,10.667v21.333h-32
			V288.001z M341.333,288.001H384v32h-42.667V288.001z M288,298.668c0-5.891,4.776-10.667,10.667-10.667H320v32h-32V298.668z
			 M320,394.668v42.667h-21.333c-5.891-0.001-10.667-4.776-10.667-10.667v-85.333h149.333v42.666H330.667
			C324.776,384.001,320,388.777,320,394.668z M384,437.334h-42.667v-32H384V437.334z M437.334,426.667
			c-0.001,5.892-4.776,10.667-10.667,10.667h-21.333v-32h32V426.667z"/>
	</g>
</g>
<g>
</g>
<g>
</g>
<g>
</g>
<g>
</g>
<g>
</g>
<g>
</g>
<g>
</g>
<g>
</g>
<g>
</g>
<g>
</g>
<g>
</g>
<g>
</g>
<g>
</g>
<g>
</g>
<g>
</g>
</svg>
