<?xml version="1.0" encoding="UTF-8"?>
<svg width="15px" height="13px" viewBox="0 0 15 13" version="1.1" xmlns="http://www.w3.org/2000/svg" xmlns:xlink="http://www.w3.org/1999/xlink">
    <!-- Generator: Sketch 47.1 (45422) - http://www.bohemiancoding.com/sketch -->
    <title>IPTVGroup</title>
    <desc>Created with Sketch.</desc>
    <defs></defs>
    <g id="Page-1" stroke="none" stroke-width="1" fill="none" fill-rule="evenodd">
        <g id="Screen-1" transform="translate(-76.000000, -547.000000)" fill-rule="nonzero" fill="#1f1f1f">
            <g id="Group-56" transform="translate(34.000000, 494.000000)">
                <g id="Group-48" transform="translate(37.000000, 46.000000)">
                    <g id="Group-16">
                        <g id="Group" transform="translate(5.000000, 7.000000)">
                            <path d="M14.4519101,0 L0.556348315,0 L0.54,0 C0.223146067,0 0,0.313213333 0,0.64324 L0,10.91376 L0,10.9390667 C0,11.2692667 0.223146067,11.44 0.54,11.44 L6.91011236,11.44 L6.91011236,12.1875867 L6.91011236,12.3066667 L3.70011236,12.3066667 C3.5108427,12.3066667 3.35865169,12.46284 3.35865169,12.6574933 C3.35865169,12.8521467 3.5108427,13 3.70011236,13 L11.2917978,13 C11.4893258,13 11.6457303,12.8521467 11.6457303,12.6574933 C11.6457303,12.46284 11.4893258,12.3066667 11.2917978,12.3066667 L8.07404494,12.3066667 L8.08988764,12.1875867 L8.08988764,11.44 L14.4436517,11.44 L14.4519101,11.44 C14.772809,11.44 15,11.2692667 15,10.9390667 L15,0.655893333 L15,0.64324 C15,0.313213333 14.772809,0 14.4519101,0 Z M13.8202247,10.4 C9.60674157,10.4 5.39325843,10.4 1.17977528,10.4 C1.17977528,7.28 1.17977528,4.33333333 1.17977528,1.21333333 L13.8202247,1.21333333 C13.8202247,4.33333333 13.8202247,7.28 13.8202247,10.4 Z" id="Shape"></path>
                            <path d="M4.35949754,7 C4.45154041,7 4.54358329,6.964945 4.61369407,6.89465524 L7.894699,3.61368718 C8.03510033,3.47328742 8.03510033,3.24569958 7.894699,3.10529982 C7.75447743,2.96490006 7.52652749,2.96490006 7.38630593,3.10529982 L4.105301,6.38626788 C3.96489967,6.52666764 3.96489967,6.75425547 4.105301,6.89465524 C4.17541179,6.964945 4.26745466,7 4.35949754,7 Z" id="Shape"></path>
                            <path d="M6.11026401,8.88968979 C6.18367923,8.96329268 6.28006024,9 6.37644124,9 C6.47282225,9 6.56920326,8.96329268 6.64261848,8.88968979 L11.889736,3.64261344 C12.0367547,3.49559591 12.0367547,3.25728068 11.889736,3.11026315 C11.7427173,2.96324562 11.5044002,2.96324562 11.3573815,3.11026315 L6.11026401,8.3573395 C5.96324533,8.50435703 5.96324533,8.74267226 6.11026401,8.88968979 Z" id="Shape"></path>
                        </g>
                    </g>
                </g>
            </g>
        </g>
    </g>
</svg>