<?xml version="1.0" encoding="UTF-8"?>
<svg width="17px" height="35px" viewBox="0 0 17 35" version="1.1" xmlns="http://www.w3.org/2000/svg" xmlns:xlink="http://www.w3.org/1999/xlink">
    <!-- Generator: Sketch 48.2 (47327) - http://www.bohemiancoding.com/sketch -->
    <title>price-tag</title>
    <desc>Created with Sketch.</desc>
    <defs></defs>
    <g id="Search-With-Cart-Open" stroke="none" stroke-width="1" fill="none" fill-rule="evenodd" transform="translate(-1007.000000, -316.000000)">
        <g id="Group-61" transform="translate(13.000000, 315.000000)" fill-rule="nonzero">
            <g id="price-tag" transform="translate(1002.410744, 21.951184) rotate(-45.000000) translate(-1002.410744, -21.951184) translate(987.910744, 6.451184)">
                <g id="Group" transform="translate(0.000000, 5.593220)">
                    <path d="M13.6587571,0 L0.560903955,13.2058757 C0.11480226,13.6519774 0.11480226,14.3755932 0.560903955,14.8221469 L9.81107345,24.0723164 C10.2571751,24.5184181 10.980791,24.5184181 11.4273446,24.0723164 L24.180791,10.9740113 L24.180791,0 L13.6587571,0 Z M19.6610169,6.32768362 C18.6625989,6.32768362 17.8531073,5.51819209 17.8531073,4.51977401 C17.8531073,3.52135593 18.6625989,2.71186441 19.6610169,2.71186441 C20.659435,2.71186441 21.4689266,3.52135593 21.4689266,4.51977401 C21.4689266,5.51819209 20.659435,6.32768362 19.6610169,6.32768362 Z" id="Shape" fill="#E4365D"></path>
                    <path d="M19.6610169,6.32768362 C18.6625989,6.32768362 17.8531073,5.51819209 17.8531073,4.51977401 C17.8531073,3.52135593 18.6625989,2.71186441 19.6610169,2.71186441 C20.659435,2.71186441 21.4689266,3.52135593 21.4689266,4.51977401 C21.4689266,5.51819209 20.659435,6.32768362 19.6610169,6.32768362 Z" id="Shape" fill="#FFFFFF"></path>
                </g>
                <path d="M19.6610169,10.5649718 C19.5453107,10.5649718 19.4296045,10.520678 19.3414689,10.4325424 C19.1647458,10.2558192 19.1647458,9.97016949 19.3414689,9.79344633 C22.1787387,6.95617652 24.5031096,4.63180561 26.3145817,2.8203336 C26.6949358,2.43997949 27.2654669,1.86944833 28.0261751,1.10874011 C28.2028983,0.932016944 28.488548,0.932016944 28.6652712,1.10874011 C28.8419944,1.28546327 28.8419944,1.57111299 28.6652712,1.74783615 L19.980565,10.4325424 C19.8924294,10.520678 19.7767232,10.5649718 19.6610169,10.5649718 Z" id="Shape" fill="#E4365D"></path>
            </g>
        </g>
    </g>
</svg>