<?xml version="1.0" encoding="iso-8859-1"?>
<!-- Generator: Adobe Illustrator 19.0.0, SVG Export Plug-In . SVG Version: 6.00 Build 0)  -->
<svg version="1.1" id="Capa_1" xmlns="http://www.w3.org/2000/svg" xmlns:xlink="http://www.w3.org/1999/xlink" x="0px" y="0px"
	 viewBox="0 0 512.005 512.005" style="enable-background:new 0 0 512.005 512.005;" xml:space="preserve">
<g>
	<g>
		<path d="M25.755,362.669l56.448-56.448c4.16-4.16,4.16-10.923,0-15.083c-4.16-4.16-10.923-4.16-15.083,0l-64,64
			c-4.16,4.16-4.16,10.923,0,15.083l64,64c2.091,2.069,4.821,3.115,7.552,3.115c2.731,0,5.461-1.045,7.531-3.136
			c4.16-4.16,4.16-10.923,0-15.083L25.755,362.669z"/>
	</g>
</g>
<g>
	<g>
		<path d="M362.672,74.669H117.339c-5.888,0-10.667,4.779-10.667,10.667s4.779,10.667,10.667,10.667h245.333
			c70.592,0,128,57.408,128,128c0,70.592-57.408,128-128,128h-352c-5.888,0-10.667,4.779-10.667,10.667
			c0,5.888,4.779,10.667,10.667,10.667h352c82.325,0,149.333-67.008,149.333-149.333S444.997,74.669,362.672,74.669z"/>
	</g>
</g>
<g>
</g>
<g>
</g>
<g>
</g>
<g>
</g>
<g>
</g>
<g>
</g>
<g>
</g>
<g>
</g>
<g>
</g>
<g>
</g>
<g>
</g>
<g>
</g>
<g>
</g>
<g>
</g>
<g>
</g>
</svg>
