<?xml version="1.0" encoding="UTF-8"?>
<svg width="17px" height="18px" viewBox="0 0 17 18" version="1.1" xmlns="http://www.w3.org/2000/svg" xmlns:xlink="http://www.w3.org/1999/xlink">
    <!-- Generator: Sketch 47.1 (45422) - http://www.bohemiancoding.com/sketch -->
    <title>VOIPGroup</title>
    <desc>Created with Sketch.</desc>
    <defs></defs>
    <g id="Page-1" stroke="none" stroke-width="1" fill="none" fill-rule="evenodd">
        <g id="Screen-1" transform="translate(-148.000000, -545.000000)" fill-rule="nonzero" fill="#1f1f1f">
            <g id="Group-56" transform="translate(34.000000, 494.000000)">
                <g id="Group-48" transform="translate(37.000000, 46.000000)">
                    <g id="Group-47" transform="translate(71.666667, 0.000000)">
                        <g id="Group" transform="translate(5.875000, 5.687500)">
                            <path d="M14.4732102,11.8276774 L10.7800284,10.4119577 C10.610696,10.3472121 10.4197585,10.3893062 10.2914205,10.5201187 L9.1771875,11.6591124 C7.62882102,10.5505095 6.29798295,9.19009722 5.21348011,7.6073226 L6.32771307,6.46832891 C6.45568182,6.33751641 6.49704545,6.1421471 6.43352273,5.96886301 L5.04857955,2.19361048 C4.98117898,2.00956692 4.80889205,1.88762626 4.61647727,1.88762626 L4.35832386,1.88762626 C3.21066761,1.88762626 2.1318892,2.34443182 1.32049716,3.1738548 C0.468849432,4.04423927 0,5.20154293 0,6.43227525 C0,7.24716351 0.212357955,8.04997096 0.614176136,8.75424432 C2.40758523,11.8969533 4.980625,14.5273605 8.05556818,16.3611894 C8.74434659,16.7717481 9.5297017,16.9886364 10.326875,16.9886364 C11.5310369,16.9886364 12.6629972,16.5093681 13.5144602,15.6389836 C14.3258523,14.8093718 14.7727273,13.7066206 14.7727273,12.5334609 L14.7727273,12.2695707 C14.7727273,12.0728801 14.6534375,11.8967645 14.4732102,11.8276774 Z M12.8615057,14.9715189 C12.1843608,15.6635227 11.2843324,16.0448232 10.326875,16.0448232 C9.69294034,16.0448232 9.0684233,15.8721054 8.52072443,15.5455461 C5.58353693,13.7940177 3.12517045,11.2812096 1.41171875,8.27875126 C1.09207386,7.71888131 0.923295455,7.08029735 0.923295455,6.43227525 C0.923295455,5.45335227 1.29630682,4.53332323 1.97326705,3.84113068 C2.59575284,3.20481187 3.41877841,2.84767298 4.29683239,2.83181692 L5.46480114,6.01567614 L4.29018466,7.21658396 C4.13451705,7.37571086 4.1103267,7.62487753 4.23238636,7.81194129 C5.4915767,9.74279419 7.08795455,11.3746471 8.97683239,12.6618194 C9.15982955,12.7867803 9.4037642,12.7618636 9.55924716,12.6027367 L10.7340483,11.4020177 L13.8486932,12.5959413 C13.8333665,13.4938851 13.4839915,14.3352001 12.8615057,14.9715189 Z" id="Shape"></path>
                            <path d="M7.84801136,1.4157197 L7.84801136,6.13478535 C7.84801136,6.39546654 8.05464489,6.60669192 8.30965909,6.60669192 C8.5646733,6.60669192 8.77130682,6.39546654 8.77130682,6.13478535 L8.77130682,1.4157197 C8.77130682,1.15503851 8.5646733,0.943813131 8.30965909,0.943813131 C8.05464489,0.943813131 7.84801136,1.15503851 7.84801136,1.4157197 Z" id="Shape"></path>
                            <path d="M13.3877841,1.4157197 L13.3877841,6.13478535 C13.3877841,6.39546654 13.5944176,6.60669192 13.8494318,6.60669192 C14.104446,6.60669192 14.3110795,6.39546654 14.3110795,6.13478535 L14.3110795,1.4157197 C14.3110795,1.15503851 14.104446,0.943813131 13.8494318,0.943813131 C13.5944176,0.943813131 13.3877841,1.15503851 13.3877841,1.4157197 Z" id="Shape"></path>
                            <path d="M9.69460227,2.83143939 L9.69460227,4.71906566 C9.69460227,4.97974684 9.9012358,5.19097222 10.15625,5.19097222 C10.4112642,5.19097222 10.6178977,4.97974684 10.6178977,4.71906566 L10.6178977,2.83143939 C10.6178977,2.57075821 10.4112642,2.35953283 10.15625,2.35953283 C9.9012358,2.35953283 9.69460227,2.57075821 9.69460227,2.83143939 Z" id="Shape"></path>
                            <path d="M15.6960227,2.35953283 C15.4410085,2.35953283 15.234375,2.57075821 15.234375,2.83143939 L15.234375,4.71906566 C15.234375,4.97974684 15.4410085,5.19097222 15.6960227,5.19097222 C15.9510369,5.19097222 16.1576705,4.97974684 16.1576705,4.71906566 L16.1576705,2.83143939 C16.1576705,2.57075821 15.9510369,2.35953283 15.6960227,2.35953283 Z" id="Shape"></path>
                            <path d="M11.5411932,0.471906566 L11.5411932,7.07859848 C11.5411932,7.33927967 11.7478267,7.55050505 12.0028409,7.55050505 C12.2578551,7.55050505 12.4644886,7.33927967 12.4644886,7.07859848 L12.4644886,0.471906566 C12.4644886,0.211225379 12.2578551,0 12.0028409,0 C11.7478267,0 11.5411932,0.211225379 11.5411932,0.471906566 Z" id="Shape"></path>
                        </g>
                    </g>
                </g>
            </g>
        </g>
    </g>
</svg>